<svg width="24" height="24" viewBox="0 0 24 24" fill="none" xmlns="http://www.w3.org/2000/svg">
<path fill-rule="evenodd" clip-rule="evenodd" d="M2.36407 12.9579C1.98463 10.3208 1.79491 9.00229 2.33537 7.87494C2.87583 6.7476 4.02619 6.06234 6.32691 4.69181L7.71175 3.86687L7.7118 3.86684C9.80106 2.62228 10.8457 2 12 2C13.1543 2 14.1989 2.62228 16.2882 3.86685L16.2882 3.86687L17.6731 4.69181C19.9738 6.06234 21.1242 6.7476 21.6646 7.87494C22.2051 9.00228 22.0154 10.3208 21.6359 12.9578L21.6359 12.9579L21.3572 14.8952L21.3572 14.8953C20.8697 18.2827 20.626 19.9764 19.451 20.9882C18.2759 22 16.5526 22 13.1061 22H10.8939C7.44736 22 5.72409 22 4.54903 20.9882C3.37396 19.9764 3.13026 18.2827 2.64284 14.8952L2.64284 14.8952L2.36407 12.9579ZM12 16C14.2091 16 16 14.2091 16 12C16 9.79086 14.2091 8 12 8C9.79086 8 8 9.79086 8 12C8 14.2091 9.79086 16 12 16Z" fill="white"/>
</svg>
